 <svg  version="1.0" xmlns="http://www.w3.org/2000/svg"  width="300.000000pt" height="300.000000pt" viewBox="0 0 300.000000 300.000000"  preserveAspectRatio="xMidYMid meet">  <g transform="translate(0.000000,300.000000) scale(0.100000,-0.100000)" fill="#00ccff" stroke="none"> <path d="M2422 2990 c0 -8 4 -26 8 -40 6 -20 8 -21 8 -5 0 11 -3 29 -8 40 -5 12 -8 14 -8 5z"/> <path d="M2301 2964 c0 -16 4 -38 9 -49 6 -13 7 -5 3 25 -7 53 -13 66 -12 24z"/> <path d="M1112 2955 c6 -14 15 -25 20 -25 5 0 1 11 -8 25 -9 14 -18 25 -20 25 -2 0 2 -11 8 -25z"/> <path d="M1696 2951 c11 -14 28 -37 37 -51 10 -13 17 -20 17 -14 0 7 -17 29 -37 51 -21 21 -29 28 -17 14z"/> <path d="M1922 2950 c0 -19 2 -27 5 -17 2 9 2 25 0 35 -3 9 -5 1 -5 -18z"/> <path d="M2333 2945 c0 -22 2 -30 4 -17 2 12 2 30 0 40 -3 9 -5 -1 -4 -23z"/> <path d="M2166 2934 c-4 -20 -5 -38 -3 -40 3 -3 8 11 11 32 4 20 5 38 3 40 -3 3 -8 -11 -11 -32z"/> <path d="M2821 2949 c0 -13 4 -33 9 -44 7 -14 8 -8 3 20 -7 46 -13 59 -12 24z"/> <path d="M2970 2940 c12 -16 24 -30 26 -30 3 0 -4 14 -16 30 -12 17 -24 30 -26 30 -3 0 4 -13 16 -30z"/> <path d="M1159 2933 c12 -18 26 -35 31 -38 19 -12 10 4 -21 37 l-32 33 22 -32z"/> <path d="M1986 2935 c4 -16 11 -37 15 -45 6 -10 7 -4 3 15 -4 17 -11 37 -15 45 -6 10 -7 4 -3 -15z"/> <path d="M1530 2932 c0 -14 -9 -17 -45 -17 -25 0 -45 4 -45 8 0 5 -5 5 -11 1 -6 -3 -15 0 -20 7 -7 11 -9 9 -9 -6 0 -11 -4 -15 -8 -10 -8 12 -22 13 -39 2 -6 -4 -13 -1 -16 5 -3 10 -9 9 -22 -4 -16 -15 -10 -16 95 -17 62 -1 116 -4 121 -7 5 -3 9 9 9 25 0 17 -2 31 -5 31 -3 0 -5 -8 -5 -18z"/> <path d="M2802 2930 c0 -14 4 -36 8 -50 6 -20 8 -21 8 -5 0 11 -4 34 -8 50 -7 27 -8 27 -8 5z"/> <path d="M741 2914 c13 -17 26 -30 28 -27 3 2 -8 16 -24 31 l-28 27 24 -31z"/> <path d="M1574 2917 c3 -10 6 -22 6 -26 0 -4 17 -13 38 -19 21 -6 47 -20 57 -29 53 -47 55 -48 55 -17 0 20 -3 25 -9 15 -7 -10 -16 -7 -41 18 -18 17 -36 28 -41 25 -5 -3 -9 -1 -9 5 0 6 -6 8 -14 5 -8 -3 -22 5 -31 18 -13 16 -16 18 -11 5z"/> <path d="M2370 2929 c0 -4 9 -26 20 -50 11 -24 19 -37 19 -29 0 15 -38 91 -39 79z"/> <path d="M2132 2890 c0 -19 2 -27 5 -17 2 9 2 25 0 35 -3 9 -5 1 -5 -18z"/> <path d="M1150 2908 c0 -4 9 -23 21 -42 18 -31 19 -36 5 -36 -9 0 -16 -7 -16 -15 0 -8 -4 -15 -10 -15 -5 0 -10 -8 -10 -18 0 -10 -5 -23 -12 -30 -7 -7 -9 -12 -5 -12 4 0 18 17 31 38 13 20 34 47 46 60 12 13 19 26 15 30 -3 3 -10 1 -14 -7 -6 -9 -14 -3 -29 21 -12 18 -22 30 -22 26z"/> <path d="M2930 2903 c0 -7 11 -25 25 -40 13 -15 25 -22 25 -15 0 6 -4 12 -10 12 -5 0 -16 12 -24 28 -8 15 -15 22 -16 15z"/> <path d="M1246 2885 c-11 -8 -16 -18 -12 -22 4 -5 13 -1 19 8 7 9 19 18 27 22 13 5 13 5 0 6 -8 0 -24 -6 -34 -14z"/> <path d="M1933 2840 c0 -30 2 -43 4 -27 2 15 2 39 0 55 -2 15 -4 2 -4 -28z"/> <path d="M550 2874 c0 -7 25 -28 53 -45 29 -16 19 -3 -18 25 -19 15 -35 24 -35 20z"/> <path d="M767 2853 c8 -23 33 -60 33 -50 0 11 -29 67 -35 67 -2 0 -2 -8 2 -17z"/> <path d="M1788 2815 c2 -14 6 -25 8 -25 2 0 4 11 4 25 0 14 -4 25 -9 25 -4 0 -6 -11 -3 -25z"/> <path d="M2830 2806 c0 -14 4 -27 8 -30 5 -3 6 8 4 25 -5 35 -12 38 -12 5z"/> <path d="M952 2795 c0 -11 3 -29 8 -40 11 -25 11 1 0 35 -6 20 -8 21 -8 5z"/> <path d="M970 2804 c0 -12 38 -74 46 -74 3 0 -5 17 -17 38 -28 46 -29 47 -29 36z"/> <path d="M1310 2801 c-21 -6 -16 -9 28 -15 29 -3 60 -9 70 -12 9 -3 6 1 -8 9 -36 21 -61 26 -90 18z"/> <path d="M1480 2790 c54 -19 99 -26 87 -14 -3 4 -23 10 -44 14 -21 4 -51 10 -68 13 -16 4 -5 -2 25 -13z"/> <path d="M1740 2798 c0 -9 5 -20 11 -23 17 -11 18 -2 3 19 -12 17 -14 17 -14 4z"/> <path d="M1812 2765 c0 -50 12 -80 29 -69 5 3 9 -3 9 -14 0 -21 33 -56 43 -45 13 12 7 32 -8 27 -8 -3 -17 0 -20 7 -2 8 -15 43 -28 79 l-24 64 -1 -49z m27 -55 c1 -13 0 -13 -9 0 -5 8 -9 24 -9 35 0 20 0 20 9 0 5 -11 9 -27 9 -35z"/> <path d="M1037 2765 c9 -19 18 -33 21 -31 4 5 -26 66 -33 66 -3 0 3 -16 12 -35z"/> <path d="M1780 2761 c0 -11 5 -23 10 -26 6 -3 10 3 10 14 0 11 -4 23 -10 26 -5 3 -10 -3 -10 -14z"/> <path d="M1930 2756 c0 -14 4 -27 8 -30 5 -3 6 8 4 25 -5 35 -12 38 -12 5z"/> <path d="M2436 2759 c12 -22 85 -102 89 -97 1 1 -20 28 -47 58 -28 30 -47 48 -42 39z"/> <path d="M2655 2740 c9 -16 18 -30 21 -30 2 0 -2 14 -11 30 -9 17 -18 30 -21 30 -2 0 2 -13 11 -30z"/> <path d="M2164 2695 c35 -51 42 -57 23 -19 -9 17 -23 37 -33 44 -9 8 -4 -3 10 -25z"/> <path d="M2185 2721 c-3 -5 0 -13 6 -17 8 -4 9 -3 5 4 -12 19 6 14 33 -10 l26 -23 -24 28 c-26 29 -36 33 -46 18z"/> <path d="M2771 2698 c0 -9 -4 -25 -7 -35 -5 -17 -5 -17 6 0 6 10 9 25 7 35 -4 15 -5 15 -6 0z"/> <path d="M2816 2684 c-4 -14 -5 -28 -3 -31 3 -2 8 8 11 23 4 14 5 28 3 31 -3 2 -8 -8 -11 -23z"/> <path d="M2575 2660 c9 -16 18 -30 21 -30 2 0 -2 14 -11 30 -9 17 -18 30 -21 30 -2 0 2 -13 11 -30z"/> <path d="M750 2664 c0 -5 14 -25 31 -44 l30 -35 -27 40 c-16 22 -29 42 -31 44 -2 2 -3 0 -3 -5z"/> <path d="M2492 2640 c0 -19 3 -57 8 -85 7 -49 7 -49 8 -10 0 22 -3 60 -7 85 -8 41 -9 42 -9 10z"/> <path d="M250 2645 c0 -5 10 -21 21 -35 13 -17 17 -18 10 -5 -17 33 -31 51 -31 40z"/> <path d="M1042 2575 c1 -41 5 -70 9 -64 3 6 5 32 3 57 -2 26 -1 41 2 35 12 -27 22 -12 11 17 -19 50 -28 34 -25 -45z"/> <path d="M1162 2618 c6 -18 68 -29 68 -13 0 14 -22 25 -52 25 -11 0 -18 -5 -16 -12z"/> <path d="M2343 2575 c0 -27 2 -38 4 -22 2 15 2 37 0 50 -2 12 -4 0 -4 -28z"/> <path d="M2576 2588 c11 -13 26 -36 32 -52 7 -16 15 -27 17 -24 9 9 -34 86 -52 92 -15 6 -15 4 3 -16z"/> <path d="M2729 2562 c5 -34 6 -35 9 -8 2 16 0 32 -5 37 -5 5 -7 -7 -4 -29z"/> <path d="M2181 2563 c0 -12 -4 -30 -7 -40 -5 -14 -4 -15 5 -7 7 6 11 24 8 40 -3 21 -4 23 -6 7z"/> <path d="M2791 2560 c0 -8 4 -24 9 -35 5 -13 9 -14 9 -5 0 8 -4 24 -9 35 -5 13 -9 14 -9 5z"/> <path d="M2764 2524 c7 -39 16 -42 16 -6 0 18 -5 32 -10 32 -6 0 -8 -12 -6 -26z"/> <path d="M411 2530 c0 -14 28 -72 29 -59 0 4 -7 22 -15 40 -8 19 -14 27 -14 19z"/> <path d="M1903 2513 c3 -13 1 -23 -3 -23 -4 0 -6 -9 -3 -19 3 -10 0 -28 -6 -39 -7 -14 -6 -37 4 -83 l14 -64 -2 61 c-1 34 -5 60 -9 57 -13 -7 -9 12 7 33 13 16 16 17 25 4 5 -8 10 -10 10 -4 0 6 -7 17 -15 24 -9 7 -13 20 -10 29 2 9 0 23 -6 31 -9 12 -10 11 -6 -7z"/> <path d="M2143 2455 c0 -22 2 -30 4 -17 2 12 2 30 0 40 -3 9 -5 -1 -4 -23z"/> <path d="M2786 2440 c8 -56 14 -64 14 -19 0 19 -5 41 -10 49 -7 10 -8 1 -4 -30z"/> <path d="M1057 2415 c3 -33 9 -78 13 -100 l8 -40 0 50 c-1 28 3 60 7 73 5 17 4 22 -6 20 -7 -2 -16 10 -20 27 -4 17 -5 4 -2 -30z"/> <path d="M2473 2415 c0 -22 2 -30 4 -17 2 12 2 30 0 40 -3 9 -5 -1 -4 -23z"/> <path d="M2733 2360 c0 -47 2 -66 4 -42 2 23 2 61 0 85 -2 23 -4 4 -4 -43z"/> <path d="M860 2428 c0 -11 44 -88 47 -84 2 2 -6 21 -18 42 -23 42 -29 51 -29 42z"/> <path d="M2123 2365 c0 -38 2 -53 4 -32 2 20 2 52 0 70 -2 17 -4 1 -4 -38z"/> <path d="M1984 2375 c35 -51 42 -57 23 -19 -9 17 -23 37 -33 44 -9 8 -4 -3 10 -25z"/> <path d="M2071 2390 c0 -8 4 -24 9 -35 5 -13 9 -14 9 -5 0 8 -4 24 -9 35 -5 13 -9 14 -9 5z"/> <path d="M1874 2311 c3 -18 6 -46 6 -62 0 -20 5 -29 16 -29 8 0 12 5 9 11 -4 5 -8 20 -10 32 -6 40 -14 70 -21 76 -4 3 -4 -9 0 -28z"/> <path d="M1341 2320 c-24 -5 -72 -23 -106 -39 -69 -32 -95 -65 -134 -171 -21 -57 -18 -125 6 -125 7 0 18 -7 25 -15 11 -12 11 -12 -4 -1 -10 7 -18 10 -18 5 1 -14 24 -40 41 -46 9 -4 19 -22 23 -41 4 -19 19 -53 35 -74 36 -50 68 -189 53 -231 -13 -37 0 -117 25 -150 30 -40 172 -161 217 -184 31 -16 44 -18 62 -9 19 9 25 7 33 -8 6 -10 8 -21 5 -24 -8 -8 143 -20 155 -12 18 11 56 94 90 194 32 96 39 155 21 166 -6 4 -10 -8 -10 -30 0 -38 -41 -177 -69 -233 -27 -56 -65 -82 -122 -82 -27 0 -49 2 -49 5 0 3 34 47 75 98 114 139 169 265 137 313 -8 13 -62 25 -62 13 0 -4 11 -21 25 -37 30 -36 30 -44 5 -101 -20 -43 -152 -225 -173 -238 -16 -9 -132 -3 -135 8 -2 5 -10 9 -17 9 -8 0 -40 31 -72 69 -32 38 -66 71 -75 74 -40 12 -58 116 -39 228 5 34 4 52 -6 65 -7 10 -18 36 -24 59 -6 22 -20 52 -30 66 -10 15 -19 35 -19 44 0 9 -12 29 -28 43 -32 32 -54 76 -42 88 4 5 3 32 -3 60 -13 62 0 100 43 132 25 19 36 21 94 13 89 -10 102 -26 23 -26 -46 0 -71 -5 -92 -20 -30 -19 -30 -20 -7 -23 13 -2 31 3 41 12 14 12 20 13 29 4 10 -10 17 -10 31 -1 24 15 68 -3 75 -32 9 -32 7 -57 -4 -50 -5 3 -7 0 -4 -8 3 -8 -6 -26 -20 -40 -25 -25 -36 -77 -16 -77 6 0 10 11 10 25 0 15 6 25 14 25 29 0 61 136 43 178 -6 12 -18 22 -28 22 -9 0 -19 6 -22 14 -3 8 -28 18 -57 23 -28 4 -50 13 -50 18 4 31 323 60 371 35 30 -16 8 -30 -49 -30 -30 0 -49 -6 -65 -21 -12 -12 -15 -18 -8 -14 8 5 39 9 69 11 32 1 58 7 62 15 7 10 13 10 32 0 13 -6 40 -21 60 -31 54 -28 72 -73 66 -162 -5 -63 -4 -70 8 -53 12 17 19 58 15 92 -1 6 3 14 8 17 14 9 22 -24 10 -46 -13 -25 -6 -34 11 -13 16 19 34 20 26 0 -3 -8 -1 -15 4 -15 25 0 5 48 -49 113 -74 90 -84 99 -151 133 -49 25 -68 28 -165 30 -60 2 -130 -1 -154 -6z"/> <path d="M2312 2300 c0 -19 2 -27 5 -17 2 9 2 25 0 35 -3 9 -5 1 -5 -18z"/> <path d="M2483 2290 c0 -25 2 -35 4 -22 2 12 2 32 0 45 -2 12 -4 2 -4 -23z"/> <path d="M1982 2298 c2 -6 15 -18 29 -27 l24 -15 -24 27 c-26 29 -35 34 -29 15z"/> <path d="M2122 2260 c0 -19 2 -27 5 -17 2 9 2 25 0 35 -3 9 -5 1 -5 -18z"/> <path d="M1963 2222 l-1 -47 9 39 c5 22 6 43 2 47 -5 4 -9 -13 -10 -39z"/> <path d="M2743 2235 c0 -22 2 -30 4 -17 2 12 2 30 0 40 -3 9 -5 -1 -4 -23z"/> <path d="M2946 2235 c10 -8 24 -14 29 -14 6 0 1 6 -9 14 -11 8 -24 15 -30 15 -5 0 -1 -7 10 -15z"/> <path d="M1546 2213 c-4 -4 -19 -7 -33 -8 -15 0 -28 -6 -31 -14 -3 -9 1 -11 17 -6 11 3 21 2 21 -3 0 -6 7 -12 14 -15 10 -4 13 -1 10 7 -9 22 18 31 32 11 14 -18 44 -14 44 6 0 8 4 8 14 0 8 -7 27 -11 43 -9 28 4 28 4 -11 21 -39 17 -107 23 -120 10z"/> <path d="M1870 2183 c0 -13 5 -23 10 -23 13 0 13 11 0 30 -8 12 -10 11 -10 -7z"/> <path d="M2050 2174 c0 -6 7 -19 15 -30 8 -10 14 -14 14 -9 0 6 -6 19 -14 29 -8 11 -15 15 -15 10z"/> <path d="M2558 2159 c-3 -17 0 -26 9 -26 15 0 15 3 4 32 -7 18 -8 17 -13 -6z"/> <path d="M1540 2130 c33 -26 50 -26 22 0 -12 11 -27 20 -34 20 -7 0 -2 -9 12 -20z"/> <path d="M2853 2105 c0 -27 2 -38 4 -22 2 15 2 37 0 50 -2 12 -4 0 -4 -28z"/> <path d="M2882 2119 c6 -16 12 -28 14 -26 5 5 -13 57 -20 57 -3 0 0 -14 6 -31z"/> <path d="M1954 2094 c-3 -19 -2 -44 3 -56 6 -15 9 -6 9 36 1 31 0 56 -2 56 -2 0 -6 -16 -10 -36z"/> <path d="M2590 2116 c0 -4 16 -24 36 -44 20 -20 31 -28 26 -17 -11 23 -62 73 -62 61z"/> <path d="M2597 2063 c10 -26 35 -64 40 -60 4 5 -36 77 -43 77 -2 0 0 -8 3 -17z"/> <path d="M1851 2023 c-1 -25 -34 -47 -59 -39 -22 7 -46 -8 -40 -25 3 -8 -1 -36 -8 -64 -17 -62 -18 -109 -3 -99 6 3 8 15 6 26 -3 11 1 38 9 60 8 22 14 54 14 69 0 26 3 29 23 24 31 -8 71 24 64 50 -4 18 -5 18 -6 -2z"/> <path d="M1902 2000 c12 -16 23 -30 25 -30 2 0 -3 14 -12 30 -9 17 -20 30 -26 30 -5 0 0 -13 13 -30z"/> <path d="M2591 2009 c-1 -8 11 -26 27 -40 l27 -24 -21 25 c-12 14 -24 32 -27 40 -5 13 -6 13 -6 -1z"/> <path d="M2493 1965 c0 -27 2 -38 4 -22 2 15 2 37 0 50 -2 12 -4 0 -4 -28z"/> <path d="M1570 1979 c0 -6 18 -29 40 -50 41 -40 52 -37 24 6 -19 29 -64 60 -64 44z"/> <path d="M2662 1935 c-1 -31 4 -58 13 -69 8 -11 15 -15 15 -10 0 6 -4 14 -9 20 -6 5 -12 32 -14 59 l-3 50 -2 -50z"/> <path d="M1356 1961 c-4 -5 -2 -12 4 -16 6 -4 8 -11 5 -16 -4 -5 10 -9 29 -9 43 0 46 12 9 31 -16 7 -31 15 -35 17 -3 2 -9 -1 -12 -7z"/> <path d="M1455 1960 c-3 -6 5 -10 19 -10 14 0 28 5 31 10 3 6 -5 10 -19 10 -14 0 -28 -4 -31 -10z"/> <path d="M1287 1942 c-19 -20 -23 -37 -7 -27 10 6 33 45 27 45 -2 0 -11 -8 -20 -18z"/> <path d="M2406 1925 c9 -14 21 -25 27 -25 6 0 0 11 -13 25 -13 14 -25 25 -27 25 -2 0 4 -11 13 -25z"/> <path d="M1572 1879 c-44 -29 -215 -32 -256 -6 -22 15 -26 15 -26 3 0 -9 9 -20 20 -26 23 -12 161 -18 202 -8 57 13 98 32 98 45 0 16 1 17 -38 -8z"/> <path d="M2002 1838 c-10 -30 -10 -31 3 -14 13 17 21 46 12 46 -1 0 -8 -15 -15 -32z"/> <path d="M2525 1850 c-3 -5 -1 -18 5 -29 17 -32 11 -38 -11 -11 -15 18 -18 19 -11 5 6 -11 28 -39 49 -61 21 -22 28 -28 15 -13 -22 25 -33 58 -33 102 0 19 -5 22 -14 7z"/> <path d="M1821 1835 c0 -5 6 -21 14 -35 8 -14 14 -20 14 -15 0 6 -6 21 -14 35 -8 14 -14 21 -14 15z"/> <path d="M1648 1732 c-54 -82 -79 -107 -113 -110 -16 -2 -35 -8 -41 -13 -8 -7 -14 -6 -19 1 -3 5 -11 10 -17 10 -7 0 -6 -5 2 -15 6 -8 9 -18 6 -23 -9 -16 67 5 79 21 5 7 15 12 21 10 13 -4 90 92 116 145 26 51 7 37 -34 -26z"/> <path d="M1725 1768 c-10 -27 12 -118 27 -118 6 0 7 11 3 28 -10 39 -17 75 -18 90 0 6 -2 12 -4 12 -2 0 -6 -6 -8 -12z"/> <path d="M2000 1731 c0 -17 4 -32 8 -35 4 -2 6 11 4 30 -5 42 -12 45 -12 5z"/> <path d="M2365 1688 c16 -15 34 -28 39 -28 5 0 -4 10 -20 22 -44 33 -53 36 -19 6z"/> <path d="M2273 1675 c0 -22 2 -30 4 -17 2 12 2 30 0 40 -3 9 -5 -1 -4 -23z"/> <path d="M2243 1655 c0 -22 2 -30 4 -17 2 12 2 30 0 40 -3 9 -5 -1 -4 -23z"/> <path d="M1891 1665 c-1 -11 -4 -31 -6 -45 l-6 -25 11 25 c6 13 9 33 7 45 -4 19 -4 19 -6 0z"/> <path d="M2357 1650 c15 -16 29 -30 31 -30 8 0 -32 49 -44 54 -9 3 -3 -7 13 -24z"/> <path d="M2440 1647 c0 -2 15 -14 33 -27 20 -15 27 -17 18 -6 -13 16 -51 41 -51 33z"/> <path d="M2640 1638 c0 -9 7 -22 17 -29 15 -13 15 -12 3 11 -17 34 -20 36 -20 18z"/> <path d="M1907 1583 c-12 -11 -8 -22 14 -34 17 -9 20 -8 16 3 -2 7 -10 12 -17 10 -8 -2 -10 3 -7 13 7 16 4 19 -6 8z"/> <path d="M2306 1570 c3 -14 11 -32 16 -40 6 -10 7 -7 2 10 -3 14 -11 32 -16 40 -6 10 -7 7 -2 -10z"/> <path d="M2450 1582 c0 -11 27 -42 37 -42 3 0 -2 10 -13 23 -10 12 -20 24 -21 26 -2 2 -3 -1 -3 -7z"/> <path d="M2392 1550 c0 -19 2 -27 5 -17 2 9 2 25 0 35 -3 9 -5 1 -5 -18z"/> <path d="M2550 1570 c0 -5 10 -15 23 -21 22 -12 22 -12 3 10 -21 23 -26 26 -26 11z"/> <path d="M1209 1537 c-26 -35 -31 -105 -14 -172 20 -78 35 -107 53 -100 7 3 42 -11 78 -31 35 -20 74 -34 86 -32 19 2 10 10 -43 40 -36 21 -72 44 -79 53 -7 8 -21 15 -32 15 -10 0 -16 5 -13 10 9 14 -4 50 -17 47 -6 -1 -12 9 -14 23 -1 14 -6 48 -10 75 -8 62 -2 57 25 -19 25 -73 34 -82 140 -157 l86 -60 -88 83 c-112 106 -127 129 -127 196 0 57 -7 63 -31 29z"/> <path d="M1990 1545 c-9 -11 -10 -19 -3 -26 7 -7 12 -2 15 15 6 30 5 31 -12 11z"/> <path d="M2101 1514 c-14 -49 -7 -56 9 -9 7 20 10 39 7 42 -3 3 -10 -12 -16 -33z"/> <path d="M2013 1520 c-1 -11 2 -18 7 -15 4 3 10 -1 13 -7 2 -7 7 -11 10 -8 3 3 -2 16 -12 28 -16 22 -17 22 -18 2z"/> <path d="M2061 1513 c-1 -18 4 -33 9 -33 12 0 12 17 0 45 -7 17 -9 15 -9 -12z"/> <path d="M1460 1492 c0 -5 7 -13 16 -16 10 -4 14 -1 12 6 -5 15 -28 23 -28 10z"/> <path d="M2160 1452 c0 -11 7 -23 16 -26 24 -9 25 -4 3 23 -18 22 -19 22 -19 3z"/> <path d="M1040 1437 c0 -10 -4 -16 -9 -13 -5 3 -11 0 -14 -8 -3 -8 -19 -17 -35 -21 -17 -3 -33 -13 -36 -21 -3 -8 -13 -14 -21 -14 -9 0 -31 -11 -49 -25 -18 -14 -36 -22 -39 -18 -4 3 -7 2 -7 -4 0 -9 -53 -39 -57 -31 -4 6 -83 -76 -83 -87 0 -7 -11 -18 -25 -25 -13 -7 -22 -16 -20 -21 3 -4 -5 -16 -17 -26 -13 -10 -28 -32 -34 -49 -10 -27 -8 -33 11 -50 12 -11 24 -26 27 -34 3 -8 8 -12 12 -9 3 3 -3 17 -14 32 -24 30 -26 60 -4 78 9 7 36 39 61 71 45 59 171 151 250 184 51 22 153 85 153 95 0 5 -7 9 -15 9 -8 0 -15 -6 -15 -12 0 -9 -4 -8 -10 2 -8 13 -10 12 -10 -3z"/> <path d="M2210 1412 c0 -6 26 -25 58 -43 31 -19 57 -31 57 -29 0 11 70 -46 108 -87 22 -24 42 -41 45 -38 3 3 14 -3 25 -12 17 -15 19 -15 11 -2 -11 21 -69 69 -81 69 -5 0 -16 11 -23 25 -7 14 -20 25 -28 25 -12 0 -12 3 -1 18 13 15 12 16 -3 3 -13 -9 -18 -10 -18 -2 0 7 -5 9 -11 6 -6 -4 -13 3 -16 15 -4 13 -8 17 -13 10 -9 -15 -60 8 -60 27 0 8 -5 11 -10 8 -6 -4 -17 -1 -25 5 -10 8 -15 9 -15 2z"/> <path d="M2063 1368 c-4 -97 -3 -191 4 -326 8 -140 8 -143 -12 -136 -11 4 -43 8 -72 8 -56 1 -90 -21 -119 -76 -31 -60 -1 -162 58 -198 39 -24 106 -26 134 -5 29 22 39 18 39 -17 0 -23 -7 -38 -23 -49 -13 -9 -30 -26 -38 -38 -14 -19 -14 -21 5 -21 12 0 32 16 47 37 16 21 37 46 48 56 35 29 102 55 140 53 20 -1 36 2 36 6 0 5 9 8 20 8 47 0 5 -33 -57 -45 -18 -4 -35 -11 -38 -16 -7 -11 48 -1 93 17 21 9 32 20 32 33 0 31 -54 37 -126 12 -32 -11 -60 -18 -62 -16 -2 2 8 26 22 53 14 28 22 54 17 57 -13 7 -19 -4 -38 -67 -28 -98 -53 -105 -53 -14 0 35 -6 99 -14 142 -19 103 -31 319 -27 467 1 64 -1 117 -6 117 -4 0 -9 -19 -10 -42z m-105 -475 c-21 -8 -38 -19 -38 -24 0 -6 8 -5 19 1 11 5 29 10 40 10 12 0 21 7 21 15 0 19 17 19 50 0 16 -9 19 -14 10 -15 -9 0 -22 6 -29 13 -11 10 -13 9 -9 -3 2 -8 14 -19 25 -25 28 -12 43 -46 43 -93 0 -21 4 -42 10 -48 14 -14 -24 -72 -56 -84 -14 -6 -37 -10 -52 -9 -27 0 -27 0 -4 10 13 5 27 7 31 5 4 -3 20 5 36 18 27 22 27 23 7 28 -15 4 -19 2 -15 -8 5 -14 -23 -19 -69 -15 -10 1 -18 -4 -18 -13 0 -9 -3 -16 -6 -16 -15 0 -43 22 -58 45 l-16 25 56 0 c46 0 55 -3 50 -15 -3 -9 0 -15 10 -15 10 0 14 6 10 15 -4 12 4 15 39 15 l44 0 -12 33 c-12 31 -12 31 -15 6 -3 -22 -7 -25 -32 -21 -26 4 -30 9 -30 34 0 16 4 27 8 24 4 -2 17 3 29 12 l22 17 -20 25 c-18 22 -19 23 -9 3 10 -22 10 -23 -43 -20 -40 1 -53 -1 -50 -11 3 -7 16 -15 28 -18 18 -4 23 -13 23 -34 -1 -24 -6 -29 -35 -33 -19 -3 -40 -4 -48 -1 -21 8 -25 43 -10 87 7 21 11 44 9 51 -5 14 44 46 71 45 13 0 7 -6 -17 -16z"/> <path d="M1912 790 c0 -19 2 -27 5 -17 2 9 2 25 0 35 -3 9 -5 1 -5 -18z"/> <path d="M988 1346 c-10 -7 -18 -18 -18 -25 0 -20 16 -12 28 14 13 29 13 29 -10 11z"/> <path d="M1127 1332 c-10 -10 -17 -22 -17 -27 0 -5 -7 -17 -17 -27 -13 -15 -14 -18 -2 -18 8 0 25 20 37 45 24 49 24 54 -1 27z"/> <path d="M2155 1276 c-10 -12 -14 -22 -23 -65 -8 -41 16 -14 28 30 12 44 11 54 -5 35z"/> <path d="M2241 1258 c-5 -13 -16 -45 -25 -73 -8 -27 -29 -87 -45 -132 -17 -45 -33 -106 -36 -135 -5 -41 7 -14 53 122 61 178 78 240 68 240 -4 0 -10 -10 -15 -22z"/> <path d="M1240 1246 c0 -4 9 -25 20 -46 18 -35 25 -40 53 -38 l32 1 -32 4 c-23 3 -30 8 -26 19 3 8 0 14 -6 14 -6 0 -11 6 -11 14 0 7 -7 19 -15 26 -8 7 -15 9 -15 6z"/> <path d="M1488 1223 c-16 -2 -28 -8 -28 -12 0 -10 59 -1 66 10 3 5 2 8 -3 8 -4 -1 -20 -4 -35 -6z"/> <path d="M2485 1170 c4 -25 18 -85 33 -135 19 -67 26 -117 28 -197 2 -105 3 -108 49 -199 40 -81 45 -100 45 -153 -1 -34 3 -95 9 -136 17 -119 15 -131 -30 -201 -73 -112 -92 -149 -75 -149 8 0 18 9 21 20 6 20 7 20 26 -2 l20 -23 -16 32 c-18 37 -19 47 -5 38 6 -3 10 0 10 8 0 8 9 22 20 32 11 10 20 26 20 37 0 10 4 18 9 18 30 0 43 126 22 222 -5 24 -10 71 -10 106 -1 35 -8 76 -16 92 -8 16 -14 34 -13 39 2 5 -4 16 -13 23 -25 20 -49 93 -49 149 0 44 2 50 17 45 15 -6 14 -4 -2 14 -10 11 -20 40 -22 63 -5 55 -8 67 -21 100 -9 20 -9 34 -2 47 9 16 8 18 -6 13 -11 -4 -15 -2 -11 4 4 6 3 13 -3 15 -5 1 -12 25 -14 52 -3 27 -10 54 -16 60 -8 8 -9 -1 -5 -34z"/> <path d="M2561 1205 c0 -5 6 -21 14 -35 8 -14 14 -20 14 -15 0 6 -6 21 -14 35 -8 14 -14 21 -14 15z"/> <path d="M1313 1193 c9 -2 25 -2 35 0 9 3 1 5 -18 5 -19 0 -27 -2 -17 -5z"/> <path d="M934 1104 c-10 -97 -2 -121 16 -42 19 86 21 128 7 128 -9 0 -16 -27 -23 -86z"/> <path d="M1385 1180 l-30 -8 33 -1 32 -1 0 -157 c0 -114 6 -189 20 -268 11 -60 27 -168 35 -239 9 -72 18 -132 20 -135 12 -12 0 138 -35 424 -21 173 -23 333 -5 378 8 19 -14 21 -70 7z"/> <path d="M1615 1180 c11 -5 31 -9 45 -9 23 0 23 1 5 9 -11 5 -31 9 -45 9 -23 0 -23 -1 -5 -9z"/> <path d="M1075 1150 c3 -19 7 -86 8 -148 2 -92 4 -109 15 -95 14 20 14 37 2 162 -5 51 -14 99 -20 105 -9 8 -10 2 -5 -24z"/> <path d="M1520 1150 c0 -11 5 -20 10 -20 6 0 10 9 10 20 0 11 -4 20 -10 20 -5 0 -10 -9 -10 -20z"/> <path d="M779 1106 c36 -62 107 -268 123 -356 5 -30 15 -64 22 -75 7 -11 20 -48 31 -83 10 -34 20 -60 22 -58 13 12 -149 541 -179 586 -39 58 -54 47 -19 -14z"/> <path d="M680 1082 c0 -12 6 -22 13 -22 6 0 23 -12 36 -25 13 -14 26 -23 29 -20 3 3 -13 25 -36 48 -38 37 -42 39 -42 19z"/> <path d="M1018 1030 c-14 -103 -9 -184 17 -271 14 -46 32 -120 41 -164 36 -191 51 -248 64 -240 10 6 7 29 -7 46 -5 8 -11 21 -11 29 -1 8 -8 49 -16 90 -8 41 -24 129 -36 194 -11 66 -24 124 -28 130 -4 6 -9 63 -12 126 -5 104 -6 110 -12 60z"/> <path d="M570 914 c-13 -33 -13 -66 1 -101 12 -28 15 -351 4 -423 -2 -19 -1 -51 3 -70 15 -62 26 437 12 508 -7 34 -10 73 -8 87 7 32 0 32 -12 -1z"/> <path d="M615 908 c-7 -26 17 -92 36 -104 14 -8 10 15 -11 76 -17 50 -19 52 -25 28z"/> <path d="M2177 893 c-3 -15 -8 -57 -11 -93 l-6 -65 16 60 c14 54 19 114 10 122 -2 2 -6 -9 -9 -24z"/> <path d="M2239 840 c-13 -30 -14 -37 -4 -33 13 4 31 60 23 68 -1 2 -10 -14 -19 -35z"/> <path d="M2332 830 c-18 -56 -30 -120 -23 -120 9 0 44 126 39 142 -3 7 -10 -3 -16 -22z"/> <path d="M680 827 c0 -5 81 -87 86 -87 13 0 1 29 -20 47 -25 22 -66 47 -66 40z"/> <path d="M1524 649 c-3 -6 -1 -16 5 -22 8 -8 11 -5 11 11 0 24 -5 28 -16 11z"/> <path d="M2339 599 c13 -5 41 -10 62 -11 86 -3 72 -37 -16 -37 -84 -1 -123 -8 -154 -30 -34 -25 -81 -82 -105 -129 -17 -32 -17 -32 3 -20 11 7 22 21 25 33 3 11 25 41 48 67 41 45 46 47 122 57 69 10 81 9 88 -4 5 -8 14 -15 21 -15 7 0 6 4 -3 10 -20 12 -9 21 18 13 24 -6 29 -21 10 -27 -197 -59 -180 -50 -237 -121 -46 -57 -57 -65 -87 -65 -18 0 -44 5 -57 11 -17 7 -35 8 -60 1 -21 -6 -37 -7 -37 -2 0 18 27 70 33 63 4 -3 7 2 7 13 0 11 9 36 20 57 15 28 17 37 6 37 -8 0 -18 -19 -25 -45 -6 -25 -13 -45 -15 -45 -2 0 -1 23 2 50 l5 50 -60 0 -60 0 -6 -67 c-10 -103 -9 -165 3 -158 6 4 48 13 93 20 87 14 107 9 107 -27 0 -26 42 -106 47 -90 3 7 -5 29 -16 48 -23 38 -16 64 17 64 9 0 36 8 60 17 35 13 48 14 63 5 20 -13 21 -11 34 34 2 5 38 32 82 58 88 54 105 79 96 141 -5 38 -9 44 -35 49 -17 3 -51 6 -77 5 -39 0 -43 -2 -22 -10z m-349 -121 c-1 -27 -48 -151 -61 -158 -20 -13 -30 -1 -19 20 13 24 13 33 0 25 -11 -7 -13 14 -3 68 4 26 13 41 27 47 31 13 56 12 56 -2z m458 0 c-3 -7 -18 -15 -34 -19 -47 -10 -106 -38 -100 -47 7 -12 -22 -52 -38 -52 -17 0 -31 33 -17 38 6 2 11 10 11 17 0 7 35 27 78 44 85 33 106 37 100 19z m-204 -122 c-3 -9 -13 -16 -22 -16 -13 0 -12 3 3 20 20 23 29 21 19 -4z"/> <path d="M2007 584 c4 -10 0 -12 -11 -8 -12 4 -16 0 -16 -16 0 -11 5 -18 10 -15 6 3 10 1 10 -5 0 -18 26 11 27 31 1 10 -5 20 -12 23 -9 3 -12 0 -8 -10z"/> <path d="M2144 538 c-57 -78 -69 -99 -52 -93 7 3 26 25 41 50 16 25 39 53 51 62 31 26 40 43 22 43 -9 0 -37 -28 -62 -62z"/> <path d="M1048 505 c-4 -77 7 -91 16 -19 4 32 2 62 -3 67 -5 5 -10 -13 -13 -48z"/> <path d="M1250 431 c0 -4 12 -18 26 -32 l26 -24 -12 27 c-12 26 -40 46 -40 29z"/> <path d="M2490 405 c0 -8 5 -15 10 -15 6 0 10 7 10 15 0 8 -4 15 -10 15 -5 0 -10 -7 -10 -15z"/> <path d="M1326 365 c-15 -14 -37 -25 -49 -26 -12 0 -16 -3 -9 -6 16 -6 15 -21 -4 -40 -11 -11 -12 -19 -5 -26 14 -14 14 -54 1 -62 -5 -3 -10 -17 -10 -29 0 -19 -7 -25 -32 -30 -92 -19 -105 -9 -98 81 l5 68 65 22 c36 13 49 20 30 17 -19 -4 -53 -12 -75 -20 -52 -18 -54 -18 -65 9 -15 37 -12 -5 5 -70 8 -31 15 -71 15 -89 0 -36 27 -52 95 -57 50 -3 65 -12 66 -40 1 -24 5 -5 39 176 l23 117 46 1 c25 1 37 4 26 6 -11 3 -25 9 -31 14 -7 6 -21 0 -38 -16z"/> <path d="M640 282 c0 -6 -7 -9 -15 -6 -8 4 -15 4 -15 1 0 -14 60 -62 140 -112 30 -19 61 -43 67 -52 18 -24 29 -7 13 21 -7 14 -27 30 -44 38 -36 14 -67 39 -113 87 -18 19 -33 30 -33 23z"/> <path d="M2360 279 c36 -5 88 -14 115 -19 83 -16 155 -21 155 -12 0 8 -144 28 -265 36 l-70 5 65 -10z"/> <path d="M1680 261 c0 -6 5 -13 10 -16 6 -3 10 -2 10 4 0 5 8 12 18 14 10 3 6 5 -10 6 -16 0 -28 -3 -28 -8z"/> <path d="M585 190 c2 -41 9 -90 14 -109 6 -18 9 -38 8 -43 -1 -6 3 -12 9 -15 12 -4 4 73 -20 177 l-15 65 4 -75z"/> <path d="M871 213 c12 -14 100 -43 131 -43 10 0 18 5 18 10 0 6 -12 10 -27 10 -16 1 -52 9 -80 19 -38 13 -50 14 -42 4z"/> <path d="M885 55 c-40 -18 -16 -19 26 0 19 8 27 14 19 14 -8 0 -28 -6 -45 -14z"/> <path d="M1213 59 c-25 -9 -28 -16 -13 -39 6 -10 10 -11 10 -2 0 6 7 12 15 12 8 0 15 -7 15 -15 0 -8 4 -15 9 -15 8 0 -3 54 -13 66 -1 1 -11 -2 -23 -7z"/> <path d="M790 25 c-23 -9 -28 -14 -15 -14 11 0 34 6 50 14 39 17 11 18 -35 0z"/> <path d="M2200 15 c7 -8 20 -14 29 -14 13 1 13 2 -1 6 -10 2 -18 9 -18 14 0 5 -5 9 -11 9 -8 0 -8 -5 1 -15z"/> </g> </svg> 